# xmcd
#
# Track frame offsets:
# 150
# 4215
# 21641
# 38591
# 48292
# 52559
# 60481
# 78313
# 82066
# 93928
# 111029
# 119153
# 129346
# 143506
# 154146
#
# Disc length: 2252 seconds
#
#
# Revision: 0
# Processed by: cddbd v1.5.1PL0 Copyright (c) Steve Scherf et al.
# Submitted via: FreeRIP 2.90 
#
DISCID=b708ca0f
DTITLE=Cacau Arcoverde - Jaraguá Mulungú
DYEAR=2005
DGENRE=Batuques
TTITLE0=Força Maior (Chamada)
TTITLE1=Ancestral das Esferas (Memórias Armoriais)
TTITLE2=Berro Estradeiro (Antenados pelo Mundo)
TTITLE3=Gunga e Viola (Berra-Boi)
TTITLE4=Coqueiros Mestres (Sertão - Beira-mar )
TTITLE5=Casa Santa (Bendito)
TTITLE6=Tira Mandinga (Batuques) Part. Especial Cátia de França
TTITLE7=As contas do meu Rosário.. (reza)
TTITLE8=Azugue (Ser-tão Canavial)
TTITLE9=Seu Lula Calixto (Ao vivo) Part. do Coco Raizes de Arcoverde
TTITLE10=Sonho de repente (versos de improviso)
TTITLE11=Fogo Pagô (ao vivo)
TTITLE12=Embola Malungo (Ao vivo)
TTITLE13=Sons da Amazônia
TTITLE14=Faixa 15 - Surpresa
EXTD=
EXTT0=
EXTT1=
EXTT2=
EXTT3=
EXTT4=
EXTT5=
EXTT6=
EXTT7=
EXTT8=
EXTT9=
EXTT10=
EXTT11=
EXTT12=
EXTT13=
EXTT14=
PLAYORDER=
